<svg xmlns="http://www.w3.org/2000/svg" width="53.506" height="57.443" viewBox="0 0 53.506 57.443">
  <g id="Group_69" data-name="Group 69" transform="translate(0)">
    <path id="Path_1381" data-name="Path 1381" d="M2532.536,5382.9c-.408-.656-.853-1.3-1.316-1.916a26.7,26.7,0,0,0-20.543-10.631h-1.5a26.728,26.728,0,0,0-26.065,26.748v22.832a12.351,12.351,0,0,0,.311,2.764,5.49,5.49,0,0,0,.7,2.157,5.046,5.046,0,0,0,.331.534,5.74,5.74,0,0,0,4.661,2.408h.015a5.77,5.77,0,0,0,1.157-.118l.138-.032c.2-.054.408-.111.612-.177.051-.021.1-.037.158-.058a12.445,12.445,0,0,0,5.379-3.583l.668-.76.949-1.075a.277.277,0,0,1,.035-.047.445.445,0,0,1,.092-.1.868.868,0,0,1,.612-.245.8.8,0,0,1,.316.062l.062.029c.479.205.964.4,1.458.577a26.761,26.761,0,0,0,31.776-39.369Zm-22.664,38.66a24.311,24.311,0,0,1-9.592-1.953c-.193-.082-.387-.169-.575-.254a2.258,2.258,0,0,0-1-.235,2.231,2.231,0,0,0-1.551.622l-.265.3-.27.31-1.7,1.939c-.015.014-.025.031-.041.046a10.115,10.115,0,0,1-4.324,2.875,2.068,2.068,0,0,1-.229.082,1.147,1.147,0,0,1-.215.061,1.445,1.445,0,0,1-.209.054,3.423,3.423,0,0,1-.7.072,3.47,3.47,0,0,1-3.121-1.942,3.4,3.4,0,0,1-.3-.9,10.21,10.21,0,0,1-.367-2.724V5397.1a24.457,24.457,0,0,1,44.257-14.357,22.034,22.034,0,0,1,1.284,1.958,24.458,24.458,0,0,1-21.082,36.858Z" transform="translate(-2483.109 -5370.35)" fill="#041c34"/>
    <g id="Group_68" data-name="Group 68" transform="translate(11.891 23.096)">
      <circle id="Ellipse_44" data-name="Ellipse 44" cx="2.813" cy="2.813" r="2.813" transform="translate(23.165)" fill="#1cd2e2"/>
      <circle id="Ellipse_45" data-name="Ellipse 45" cx="2.813" cy="2.813" r="2.813" transform="translate(11.582)" fill="#1cd2e2"/>
      <circle id="Ellipse_46" data-name="Ellipse 46" cx="2.813" cy="2.813" r="2.813" fill="#1cd2e2"/>
    </g>
  </g>
</svg>
