<svg id="Group_530" data-name="Group 530" xmlns="http://www.w3.org/2000/svg" width="39.087" height="66.078" viewBox="0 0 39.087 66.078">
  <circle id="Ellipse_38" data-name="Ellipse 38" cx="2.394" cy="2.394" r="2.394" transform="translate(9.301 9.394)" fill="#1cd2e2"/>
  <circle id="Ellipse_39" data-name="Ellipse 39" cx="2.394" cy="2.394" r="2.394" transform="translate(9.301 19.251)" fill="#1cd2e2"/>
  <circle id="Ellipse_40" data-name="Ellipse 40" cx="2.394" cy="2.394" r="2.394" transform="translate(9.301 29.108)" fill="#1cd2e2"/>
  <path id="Path_1376" data-name="Path 1376" d="M4442.939,2806.858a13.233,13.233,0,0,0-7.625-2.4H4422.8a13.283,13.283,0,0,0-13.288,13.288v39.5a13.283,13.283,0,0,0,13.288,13.289h12.512a13.285,13.285,0,0,0,13.288-13.289v-39.5A13.273,13.273,0,0,0,4442.939,2806.858Zm3.21,50.369a10.9,10.9,0,0,1-10.9,10.9h-12.382a10.9,10.9,0,0,1-10.9-10.9v-39.47a10.9,10.9,0,0,1,10.9-10.9h12.382a10.9,10.9,0,0,1,10.9,10.9Z" transform="translate(-4409.515 -2804.454)" fill="#041c34"/>
</svg>
