<svg xmlns="http://www.w3.org/2000/svg" width="61.5" height="61.516" viewBox="0 0 61.5 61.516">
  <g id="Group_519" data-name="Group 519" transform="translate(0 0)">
    <g id="Group_516" data-name="Group 516" transform="translate(15.398 27.759)">
      <circle id="Ellipse_311" data-name="Ellipse 311" cx="2.999" cy="2.999" r="2.999" transform="translate(24.703)" fill="#1cd2e2"/>
      <circle id="Ellipse_312" data-name="Ellipse 312" cx="2.999" cy="2.999" r="2.999" transform="translate(12.352)" fill="#1cd2e2"/>
      <circle id="Ellipse_313" data-name="Ellipse 313" cx="2.999" cy="2.999" r="2.999" transform="translate(0)" fill="#1cd2e2"/>
    </g>
    <path id="Path_3908" data-name="Path 3908" d="M4762.08,2829.365l-2.857-.706a25.437,25.437,0,0,0-1.67-4.543l1.722-2.379a4.267,4.267,0,0,0-.208-5.3l-2.07-2.448a4.307,4.307,0,0,0-5.2-1.093l-2.645,1.322a24.941,24.941,0,0,0-8.1-3.709l-.7-2.853a4.272,4.272,0,0,0-4.166-3.281h-3.212a4.3,4.3,0,0,0-4.178,3.281l-.693,2.864a25.031,25.031,0,0,0-7.639,3.439l-2.607-1.361a4.261,4.261,0,0,0-5.229,1l-2.12,2.346a4.28,4.28,0,0,0-.318,5.3l1.682,2.418a25.447,25.447,0,0,0-1.912,4.973l-2.792.667a4.284,4.284,0,0,0-3.312,4.187v3.221a4.3,4.3,0,0,0,3.261,4.187l2.865.718a26.02,26.02,0,0,0,1.669,4.543l-1.72,2.329a4.28,4.28,0,0,0,.169,5.3l2.061,2.465a4.3,4.3,0,0,0,5.211,1.083l2.644-1.312a25.338,25.338,0,0,0,7.688,3.635l.6,2.772a4.3,4.3,0,0,0,4.091,3.385l3.213.077a4.292,4.292,0,0,0,4.255-3.174l.769-2.858c.168-.042.338-.084.507-.128v.018a25.052,25.052,0,0,0,7.622-3.46l2.545,1.364a4.307,4.307,0,0,0,5.232-.926l2.137-2.4a4.293,4.293,0,0,0,.337-5.3l-1.68-2.436a25.383,25.383,0,0,0,1.887-4.973l2.847-.7a4.272,4.272,0,0,0,3.291-4.156v-3.231A4.279,4.279,0,0,0,4762.08,2829.365Zm-.7,8.674-3.739.9a1.526,1.526,0,0,0-1.1,1.126,21.955,21.955,0,0,1-2.24,5.967,1.477,1.477,0,0,0,.081,1.572l2.188,3.179a1.317,1.317,0,0,1-.088,1.552l-2.13,2.388a1.344,1.344,0,0,1-1.61.3l-3.34-1.8a1.5,1.5,0,0,0-1.585.107,21.621,21.621,0,0,1-3.09,1.9c-.554.28-1.123.536-1.7.768-.182.071-.363.143-.548.211-.44.167-.884.318-1.334.458-.672.2-1.357.379-2.047.518a1.47,1.47,0,0,0-1.146,1.079l-1.006,3.727a1.31,1.31,0,0,1-1.239.936l-3.2-.075a1.346,1.346,0,0,1-1.271-1.036l-.792-3.71a1.5,1.5,0,0,0-1.107-1.137c-.527-.125-1.045-.269-1.561-.432v-.019a22.389,22.389,0,0,1-3.183-1.286,22.112,22.112,0,0,1-3.516-2.185,1.5,1.5,0,0,0-1.56-.152l-3.472,1.772a1.324,1.324,0,0,1-1.591-.328l-2.061-2.477a1.31,1.31,0,0,1-.061-1.612l2.249-3.072a1.471,1.471,0,0,0,.132-1.573,22.38,22.38,0,0,1-2.048-5.559,1.489,1.489,0,0,0-1.1-1.114l-3.749-.936a1.321,1.321,0,0,1-1-1.282V2833.5a1.325,1.325,0,0,1,1-1.272l3.689-.884a1.5,1.5,0,0,0,1.113-1.125,22.384,22.384,0,0,1,2.257-5.967,1.466,1.466,0,0,0-.078-1.569l-2.159-3.145a1.3,1.3,0,0,1,.1-1.619l2.129-2.41a1.316,1.316,0,0,1,1.6-.277l3.408,1.789a1.5,1.5,0,0,0,1.573-.148,21.983,21.983,0,0,1,8.176-3.659,1.492,1.492,0,0,0,1.124-1.105l.914-3.74a1.329,1.329,0,0,1,1.283-.994h3.243a1.3,1.3,0,0,1,1.274.994l.915,3.731a1.5,1.5,0,0,0,1.122,1.1,21.98,21.98,0,0,1,8.6,3.978,1.5,1.5,0,0,0,1.572.137l3.451-1.718a1.3,1.3,0,0,1,1.591.316l2.078,2.457a1.3,1.3,0,0,1,.062,1.61l-2.259,3.115a1.52,1.52,0,0,0-.106,1.571,22.633,22.633,0,0,1,1.989,5.548,1.491,1.491,0,0,0,1.1,1.113l3.741.926a1.314,1.314,0,0,1,.993,1.274l.061,3.231A1.335,1.335,0,0,1,4761.382,2838.039Z" transform="translate(-4703.86 -2804.375)" fill="#041c34"/>
  </g>
</svg>
