<svg xmlns="http://www.w3.org/2000/svg" width="93.212" height="53.118" viewBox="0 0 93.212 53.118">
  <g id="Group_65" data-name="Group 65" transform="translate(0)">
    <circle id="Ellipse_35" data-name="Ellipse 35" cx="2.589" cy="2.589" r="2.589" transform="translate(74.559 8.862)" fill="#1cd2e2"/>
    <circle id="Ellipse_36" data-name="Ellipse 36" cx="2.589" cy="2.589" r="2.589" transform="translate(63.896 8.862)" fill="#1cd2e2"/>
    <circle id="Ellipse_37" data-name="Ellipse 37" cx="2.589" cy="2.589" r="2.589" transform="translate(53.234 8.862)" fill="#1cd2e2"/>
    <path id="Path_1375" data-name="Path 1375" d="M4231.377,2804.454h-71.849a10.682,10.682,0,0,0-10.683,10.682v31.754a10.681,10.681,0,0,0,10.683,10.682h71.849a10.68,10.68,0,0,0,10.681-10.682v-31.754A10.681,10.681,0,0,0,4231.377,2804.454Zm8.71,42.423a8.763,8.763,0,0,1-8.762,8.762h-71.746a8.763,8.763,0,0,1-8.762-8.762v-31.729a8.762,8.762,0,0,1,8.762-8.761h71.746a8.762,8.762,0,0,1,8.762,8.761Z" transform="translate(-4148.846 -2804.454)" fill="#041c34"/>
  </g>
</svg>
