<svg id="Group_531" data-name="Group 531" xmlns="http://www.w3.org/2000/svg" width="65.548" height="64.787" viewBox="0 0 65.548 64.787">
  <circle id="Ellipse_41" data-name="Ellipse 41" cx="3.239" cy="3.239" r="3.239" transform="translate(58.993)" fill="#1cd2e2"/>
  <circle id="Ellipse_42" data-name="Ellipse 42" cx="3.239" cy="3.239" r="3.239" fill="#1cd2e2"/>
  <circle id="Ellipse_43" data-name="Ellipse 43" cx="3.239" cy="3.239" r="3.239" transform="translate(29.612)" fill="#1cd2e2"/>
  <path id="Path_1377" data-name="Path 1377" d="M4589.465,2850.54a1.365,1.365,0,0,0-.1-.165l-1.126-1.9-10.231-17.271-.083-.138a1.12,1.12,0,0,0-.923-.481h0a1.116,1.116,0,0,0-.922.481l-.085.138-10.23,17.271-1.125,1.9a1.145,1.145,0,0,0-.1.165,1.8,1.8,0,0,0-.209.844,1.845,1.845,0,0,0,.06.462.01.01,0,0,0,0,.008,1.638,1.638,0,0,0,.161.4l.518,1.3,1.9,4.789,1.119,2.816.124.308.1.257a1.037,1.037,0,0,1-.489,1.161l-.035.022a3.647,3.647,0,0,0-1.723,2.391,3.4,3.4,0,0,0-.085.77,3.665,3.665,0,0,0,.857,2.359,3.709,3.709,0,0,0,1.632,1.122.994.994,0,0,1,.7.925.09.09,0,0,1,0,.033.078.078,0,0,1,0,.03l0,1.985,0,4.844v.506a4.268,4.268,0,0,0,.392,1.561,4.327,4.327,0,0,0,3.928,2.513h6.991a4.335,4.335,0,0,0,4.32-4.074v-.506l0-4.844,0-1.985a.1.1,0,0,1,0-.03.118.118,0,0,1,0-.033,1,1,0,0,1,.7-.925,3.712,3.712,0,0,0,1.633-1.122,3.664,3.664,0,0,0,.855-2.359,3.461,3.461,0,0,0-.083-.77,3.65,3.65,0,0,0-1.723-2.391.262.262,0,0,1-.035-.022,1.039,1.039,0,0,1-.522-.9,1.094,1.094,0,0,1,.032-.26,1.183,1.183,0,0,1,.1-.257l.124-.308,1.121-2.816,1.9-4.789.516-1.3.162-.4a.008.008,0,0,0,0-.008,1.891,1.891,0,0,0,.059-.462A1.809,1.809,0,0,0,4589.465,2850.54Zm-2.613,1.433a1.377,1.377,0,0,1-.06.155l-.222.551-.051.133-3.041,7.651-.008.019-.1.251-.01.019a3.6,3.6,0,0,0-.19,1.163,3.679,3.679,0,0,0,.06.652,3.574,3.574,0,0,0,1.271,2.133c.438.255,1.036.725,1.036,1.358a1.222,1.222,0,0,1-.962,1.2,1.132,1.132,0,0,1-.127.022l-.012,0a2.636,2.636,0,0,0-1.8,1.3,2.527,2.527,0,0,0-.248.609h0a2.6,2.6,0,0,0-.085.5v.392l0,3.613v3.729a1.766,1.766,0,0,1,0,.406,1.814,1.814,0,0,1-1.732,1.609.572.572,0,0,1-.071,0,.588.588,0,0,1-.072,0l-3.422,0h0l-3.422,0a.881.881,0,0,1-.144,0,1.812,1.812,0,0,1-1.732-1.609,1.926,1.926,0,0,1,0-.406v-3.729l0-3.613v-.392a2.457,2.457,0,0,0-.085-.5h0a2.488,2.488,0,0,0-.248-.609,2.64,2.64,0,0,0-1.8-1.3l-.01,0a1.148,1.148,0,0,1-.128-.022,1.221,1.221,0,0,1-.962-1.2c0-.633.6-1.1,1.035-1.358a3.588,3.588,0,0,0,1.139-3.948l-.008-.019-.1-.251-.008-.019-3.04-7.651-.051-.133-.223-.551a1.6,1.6,0,0,1-.06-.155,1.443,1.443,0,0,1-.062-.418,1.385,1.385,0,0,1,.156-.644s0,0,0,0a.872.872,0,0,1,.08-.141s0,0,.006-.008l.274-.465.05-.081,9.341-15.766,9.34,15.766.05.081.275.465s0,.006,0,.008a.965.965,0,0,1,.082.141s0,0,0,0a1.386,1.386,0,0,1,.157.644A1.411,1.411,0,0,1,4586.852,2851.972Z" transform="translate(-4544.137 -2817.157)" fill="#041c34"/>
  <path id="Path_1378" data-name="Path 1378" d="M4531.665,2838.862a2.866,2.866,0,0,1-.054,5.349,2.916,2.916,0,0,1-1,.178,2.862,2.862,0,0,1-1.533-5.282,31.448,31.448,0,0,1,24.127-27.867c-.018.187-.026.377-.026.569a7.125,7.125,0,0,0,.284,2A28.9,28.9,0,0,0,4531.665,2838.862Z" transform="translate(-4527.521 -2808.373)" fill="#041c34"/>
  <path id="Path_1379" data-name="Path 1379" d="M4625.986,2841.525a2.862,2.862,0,0,1-1.312,2.406,2.868,2.868,0,0,1-2.585.266,2.866,2.866,0,0,1-.058-5.322,28.893,28.893,0,0,0-21.8-25.066,7.073,7.073,0,0,0,.284-2c0-.192-.009-.382-.024-.569a31.455,31.455,0,0,1,24.128,27.846A2.855,2.855,0,0,1,4625.986,2841.525Z" transform="translate(-4560.438 -2808.373)" fill="#041c34"/>
</svg>
